<svg width="24" height="24" viewBox="0 0 24 24" xmlns="http://www.w3.org/2000/svg"><title>Rectangle 3</title><g transform="translate(4 3)" fill="#b6b7bc"><ellipse cx="8" cy="7.027" rx="2.381" ry="2.319"/><path d="M15.752 17l-4.184-3.871c2.176-1.21 3.647-3.487 3.647-6.102C15.215 3.147 11.984 0 8 0 4.015 0 .785 3.146.785 7.027c0 2.615 1.47 4.892 3.647 6.102L.248 17h15.504zM3.623 7.027c0-2.354 1.96-4.262 4.377-4.262s4.377 1.908 4.377 4.262c0 2.354-1.96 4.262-4.377 4.262S3.623 9.381 3.623 7.027z"/></g></svg>