<svg width="140" height="140" viewBox="0 0 140 140" xmlns="http://www.w3.org/2000/svg" xmlns:xlink="http://www.w3.org/1999/xlink"><title>Rectangle 37 Copy 2</title><defs><path id="a" d="M0 21.596h6.24V0H0z"/></defs><g fill="none" fill-rule="evenodd"><path d="M97 70c0 13.807-11.193 25-25 25S47 83.807 47 70s11.193-25 25-25 25 11.193 25 25zM58.972 56.268L84.324 81.62m-24.648-.705l24.648-24.647" stroke="#FFF" stroke-width="2" stroke-linecap="round" stroke-linejoin="round"/><path fill="#121223" d="M54.042 69.73l14.505-3.98 3.885-14.412 4.002 14.48 14.228 3.913-14.179 3.994-4.13 14.233L68.5 73.744z"/><text font-family="GothamPro-Medium, Gotham Pro" font-size="14" font-weight="400" letter-spacing=".69" fill="#121223" transform="translate(22 25)"><tspan x="0" y="51">W</tspan></text><text font-family="GothamPro-Medium, Gotham Pro" font-size="14" font-weight="400" letter-spacing=".805" fill="#121223" transform="translate(22 25)"><tspan x="86" y="51">E</tspan></text><text font-family="GothamPro-Medium, Gotham Pro" font-size="14" font-weight="400" letter-spacing=".805" fill="#121223" transform="translate(22 25)"><tspan x="44" y="10">N</tspan></text><text font-family="GothamPro-Medium, Gotham Pro" font-size="14" font-weight="400" letter-spacing=".805" fill="#121223" transform="translate(22 25)"><tspan x="45" y="88">S</tspan></text><g transform="translate(93 59)"><mask id="b" fill="#fff"><use xlink:href="#a"/></mask><path d="M0 1.963a17.702 17.702 0 0 1 2.352 8.835c0 3.217-.86 6.234-2.352 8.835l1.167.68 2.2 1.284A21.632 21.632 0 0 0 6.24 10.798C6.24 6.866 5.19 3.18 3.366 0l-2.2 1.283L0 1.963z" fill="#FEFEFE" mask="url(#b)"/></g></g></svg>