<svg width="56" height="56" viewBox="0 0 56 56" xmlns="http://www.w3.org/2000/svg"><path d="M21.587 15.021c-.157-.032-.346-.032-.472.032-1.7.67-2.769 3.126-3.02 4.816-.787 5.486 3.492 10.239 7.425 13.365 3.493 2.775 10.195 7.336 14.16 2.934.503-.542 1.1-1.34 1.07-2.137-.095-1.34-1.322-2.296-2.266-3.03-.724-.542-2.234-2.041-3.178-2.01-.85.032-1.385.926-1.92 1.468l-.944.957c-.157.16-2.17-1.18-2.39-1.34a16.09 16.09 0 0 1-2.298-1.818 14.982 14.982 0 0 1-1.856-2.169c-.158-.223-1.448-2.169-1.322-2.328 0 0 1.101-1.213 1.416-1.691.66-1.02 1.164-1.818.41-3.03-.284-.447-.63-.798-1.008-1.18-.66-.638-1.321-1.308-2.076-1.85-.41-.32-1.102-.893-1.731-.989z" fill="#121222"/></svg>