<?xml version="1.0" encoding="utf-8"?>
<svg version="1.1" id="Layer_1" x="0px" y="0px" width="24px" height="24px" viewBox="1.5 -0.5 24 24" enable-background="new 1.5 -0.5 24 24" xmlns="http://www.w3.org/2000/svg">
  <title>Rectangle 3</title>
  <g>
    <path d="M22.07,7.385H18.5L18.005,4.51C17.833,3.909,17.123,3.5,16.5,3.5h-6c-0.623,0-1.312,0.409-1.505,1.01&#10;&#9;&#9;L8.5,7.385H4.93c-0.237,0-0.43,0.193-0.43,0.43V19.07c0,0.237,0.193,0.43,0.43,0.43h17.14c0.237,0,0.43-0.193,0.43-0.43V7.815&#10;&#9;&#9;C22.5,7.578,22.307,7.385,22.07,7.385z M20.5,17.5h-14v-8h2.816c0.193,0,0.365-0.129,0.409-0.323l0.58-3.319&#10;&#9;&#9;C10.369,5.622,10.606,5.5,10.842,5.5h4.988c0.258,0,0.473,0.143,0.537,0.358l0.581,3.319C16.991,9.371,17.163,9.5,17.357,9.5H20.5&#10;&#9;&#9;V17.5z" style="fill: rgb(182, 183, 188);"/>
    <path d="M13.5,8.5c-2.209,0-4,1.791-4,4s1.791,4,4,4s4-1.791,4-4S15.709,8.5,13.5,8.5z M13.5,14.5&#10;&#9;&#9;c-1.103,0-2-0.897-2-2s0.897-2,2-2s2,0.897,2,2S14.603,14.5,13.5,14.5z" style="fill: rgb(182, 183, 188);"/>
  </g>
</svg>