<svg width="140" height="140" viewBox="0 0 140 140" xmlns="http://www.w3.org/2000/svg" xmlns:xlink="http://www.w3.org/1999/xlink"><title>Rectangle 37</title><defs><path id="a" d="M0 21.596h6.24V0H0z"/></defs><g fill="none" fill-rule="evenodd"><path d="M94 70c0 13.807-11.193 25-25 25S44 83.807 44 70s11.193-25 25-25 25 11.193 25 25zM56 56l25 25m-24 0l25-25" stroke="#FFF" stroke-width="2" stroke-linecap="round" stroke-linejoin="round"/><path fill="#121223" d="M51 69.584l14.655-4.023L69.581 51l4.043 14.63L88 69.584 73.674 73.62 69.5 88l-3.892-14.361z"/><text font-family="GothamPro-Medium, Gotham Pro" font-size="14" font-weight="400" letter-spacing=".69" fill="#121223" transform="translate(26 25)"><tspan x="0" y="51">З</tspan></text><text font-family="GothamPro-Medium, Gotham Pro" font-size="14" font-weight="400" letter-spacing=".805" fill="#121223" transform="translate(26 25)"><tspan x="79" y="51">В</tspan></text><text font-family="GothamPro-Medium, Gotham Pro" font-size="14" font-weight="400" letter-spacing=".805" fill="#121223" transform="translate(26 25)"><tspan x="38" y="10">С</tspan></text><text font-family="GothamPro-Medium, Gotham Pro" font-size="14" font-weight="400" letter-spacing=".805" fill="#121223" transform="translate(26 25)"><tspan x="36" y="88">Ю</tspan></text><g transform="translate(90 59)"><mask id="b" fill="#fff"><use xlink:href="#a"/></mask><path d="M0 1.963a17.702 17.702 0 0 1 2.352 8.835c0 3.217-.86 6.234-2.352 8.835l1.167.68 2.2 1.284A21.632 21.632 0 0 0 6.24 10.798C6.24 6.866 5.19 3.18 3.366 0l-2.2 1.283L0 1.963z" fill="#FEFEFE" mask="url(#b)"/></g></g></svg>