<svg width="24" height="24" viewBox="1.5 -0.5 24 24" xmlns="http://www.w3.org/2000/svg"><g fill="#b6b7bc"><path d="M22.07 7.385H18.5l-.495-2.875c-.172-.601-.882-1.01-1.505-1.01h-6c-.623 0-1.312.409-1.505 1.01L8.5 7.385H4.93a.43.43 0 0 0-.43.43V19.07c0 .237.193.43.43.43h17.14a.43.43 0 0 0 .43-.43V7.815a.43.43 0 0 0-.43-.43zM20.5 17.5h-14v-8h2.816a.416.416 0 0 0 .409-.323l.58-3.319c.064-.236.301-.358.537-.358h4.988c.258 0 .473.143.537.358l.581 3.319a.414.414 0 0 0 .409.323H20.5v8z"/><path d="M13.5 8.5a4 4 0 1 0 0 8 4 4 0 0 0 0-8zm0 6c-1.103 0-2-.897-2-2s.897-2 2-2 2 .897 2 2-.897 2-2 2z"/></g></svg>