<svg id="svg2" xmlns="http://www.w3.org/2000/svg" width="500" height="195.7"><style>.st0{fill:#004099}</style><g id="g10" transform="matrix(1.33333 0 0 -1.33333 0 21.333)"><g id="g12" transform="scale(.1)"><path id="path14" class="st0" d="M711.3-294.3v-969.6c0-33.2 27.6-39 52.2-12.2L1086-959.9V112.4c0 29.5-26.1 35.2-51.4 12.2L228.3-667.9c-229.8-229.8-237.7-479.3-100-599 40.1-29.6 67.8-31.1 99.2-3l443.4 431.6c32.9 33.3-9.1 36.4-9.1 36.4H428.6c-82.9.4-100 108.2 5.7 228.2l277 279.4z"/><path id="path16" class="st0" d="M1596.5-574.4L1761.9-412c22.6 25 25.8 41.7-5.7 70.9-115.8 99.2-283.5 100.4-387.3 1.2l-163.5-159.8c-92.8-104.1-53.4-173.8 0-227.2l349.8-345.3c39.7-36.8 15.9-96.5-59.5-135.9-101.1-48.8-141.6-22-141.6 71.5v198.5c-2 31.4-14.7 31.4-32.9 11.4L1119-1129c-39.8-45.1 2.6-103.7 64.3-127.9 201-66 315-16.3 410.5 70l130.5 131.4c103.4 123.8 7.2 208.2 7.2 208.2-49.5 51.5-338.9 331.7-338.9 331.7-71.5 58.7-51.8 115.4 53.4 177.2 40.1 23.8 78.8 7.5 78.8-31v-211.5c.2-43.9 24.1-41.2 71.7 6.5"/><path id="path18" class="st0" d="M2610.4-106.8v-1130.5c0-60.6 32.1-61.7 66.2-30.3l231.4 228.3-1.2 368.3 100.1 100.5V-1243c0-51.5 27.6-54.9 66.1-20.1l220.8 218.4v745.8c0 42-27.7 51.2-58.7 14.4L2908-604.1V94.1c0 58-32.9 54.6-60.6 25.8l-237-226.7z"/><path id="path20" class="st0" d="M3662.5 130.9l-234.8-226v-250.7c0-39.3 24.6-43.1 56.2-14l226.7 224.5v255.2c-1.9 31.1-25.7 32.3-48.1 11"/><path id="path22" class="st0" d="M3661.1-276.8l-229.4-226V-1254c.7-37.5 24.5-42.4 54.9-12.2l226 223.4V-295c-.1 35.7-25.1 44.7-51.5 18.2"/><path id="path24" class="st0" d="M2013.4-888.7c1.1 94.7 40.5 176.5 107.1 240.1l80.3 78v-421.8l-74.1-64c-46.3-33.3-113.3 36.4-113.3 167.7m409.6 601l-461.1-452.1c-115.4-115.5-243.3-376.7-71.5-523.3 44.3-33.3 60.6-27.6 93.9 0l214.7 207.5v-197.5c0-35.7 28.4-40.5 58.6-12.2 41.7 39.7 226.8 216.9 226.8 216.9v745.8c1 48.5-24.6 51.6-61.4 14.9"/></g></g></svg>